<?xml version="1.0" encoding="UTF-8" standalone="no"?>
<!-- Created with Inkscape (http://www.inkscape.org/) -->

<svg
   width="180.29156mm"
   height="39.892807mm"
   viewBox="0 0 180.29156 39.892807"
   version="1.1"
   id="svg1"
   xml:space="preserve"
   xmlns="http://www.w3.org/2000/svg"
   xmlns:svg="http://www.w3.org/2000/svg"><defs
     id="defs1" /><g
     id="layer1"
     transform="translate(-17.971415,-119.64121)"><g
       id="g2"
       transform="translate(1.7827132,71.308527)"
       style="fill:#ffffff;fill-opacity:1"><g
         id="g1"><path
           id="rect3"
           style="fill:#24a556;fill-opacity:1;stroke:none;stroke-width:4.2178;stroke-linecap:square;stroke-linejoin:round;stroke-dasharray:none;stroke-opacity:1;paint-order:normal"
           d="m 18.659915,48.332675 c -1.368955,0 -2.471214,1.133437 -2.471214,2.541812 v 27.744429 c 4.793018,0.006 9.25306,0.686794 12.440378,-1.389375 2.376433,-1.547972 3.815549,-4.083839 5.162832,-7.166819 1.347286,-3.083014 2.531219,-6.634024 4.745727,-9.715434 3.218471,-4.478379 8.374272,-5.897491 13.33244,-5.948061 1.312332,-0.01325 2.610355,0.07005 3.855316,0.217107 v -3.741847 c 0,-1.408375 -1.102256,-2.541812 -2.471216,-2.541812 z m 33.099412,10.366754 c -3.948492,0.113292 -7.690964,1.279811 -9.845741,4.278097 -1.729556,2.406625 -2.875375,5.666471 -4.317051,8.965478 -1.441674,3.298975 -3.249663,6.714068 -6.649415,8.928634 -4.832937,3.148066 -10.42938,2.041866 -14.758419,2.028185 v 2.783296 c 0,1.408386 1.102259,2.54237 2.471214,2.54237 h 34.594263 c 1.36896,0 2.471216,-1.133984 2.471216,-2.54237 V 58.908604 C 54.414632,58.741183 53.075492,58.66167 51.759327,58.699429 Z" /><path
           d="m 70.550717,80.883009 h -8.499855 q -0.785312,0 -0.785312,-0.784003 v -2.259775 q 0,-0.737879 0.785312,-0.737879 h 7.760737 q 3.002667,0 3.002667,-2.075309 V 74.47263 q 0,-1.84472 -2.171159,-2.813188 l -5.035241,-2.398128 q -2.355938,-1.106827 -3.418419,-2.444244 -1.062482,-1.337418 -1.062482,-3.504957 0,-5.949201 6.605866,-5.949201 h 7.668347 q 0.739118,0 0.739118,0.784005 v 2.259773 q 0,0.784003 -0.739118,0.784003 h -6.74445 q -1.385846,0 -2.124964,0.507297 -0.739118,0.461178 -0.739118,1.245181 v 0.507296 q 0,1.475771 2.355939,2.582598 l 5.081435,2.5826 q 2.402132,1.060711 3.279834,2.53648 0.923898,1.429656 0.923898,3.735541 0,5.995323 -6.883035,5.995323 z M 82.468968,53.442897 v -4.196723 q 0,-0.737885 0.739118,-0.737885 h 3.002666 q 0.739119,0 0.739119,0.737885 v 4.196723 q 0,0.784003 -0.739119,0.784003 h -3.002666 q -0.739118,0 -0.739118,-0.784003 z m 0,26.656109 V 58.146917 q 0,-0.784005 0.739118,-0.784005 h 2.956471 q 0.785314,0 0.785314,0.784005 v 21.952089 q 0,0.46118 -0.18478,0.645646 -0.138588,0.138357 -0.554339,0.138357 h -2.956471 q -0.785313,0 -0.785313,-0.784003 z m 19.124662,-0.368947 h -2.078766 q -3.32603,0 -5.12763,-1.844704 -1.755405,-1.890844 -1.755405,-5.303554 v -8.070623 q 0,-3.412721 1.89399,-5.257434 1.89399,-1.890832 5.266214,-1.890832 h 10.347647 q 0.83151,0 0.83151,0.784005 v 22.828325 q 0,3.366601 -1.94018,5.211321 -1.89399,1.890828 -5.26622,1.890828 h -8.684632 q -0.785314,0 -0.785314,-0.737879 V 84.94138 q 0,-0.784003 0.785314,-0.784003 h 7.991712 q 3.37222,0 3.37222,-3.412725 v -3.504958 h -0.18478 q -1.15487,2.490365 -4.66568,2.490365 z m 4.85046,-7.840027 V 61.744108 q 0,-0.461179 -0.50814,-0.461179 h -5.49719 q -3.279834,0 -3.279834,3.412719 v 7.655564 q 0,3.412725 3.279834,3.412725 h 2.21735 q 3.78798,0 3.78798,-3.873905 z m 13.99705,8.992977 h -2.91028 q -0.78531,0 -0.78531,-0.784003 V 58.146917 q 0,-0.784005 0.78531,-0.784005 h 2.91028 q 0.78531,0 0.78531,0.784005 v 1.660241 h 0.18478 q 1.33965,-2.444246 4.89666,-2.444246 h 1.52443 q 4.01895,0 5.72816,3.043778 0.73912,-1.475771 2.26355,-2.259773 1.52443,-0.784005 3.27983,-0.784005 h 1.47823 q 3.37223,0 5.12764,1.890832 1.8016,1.844713 1.8016,5.257434 v 15.587828 q 0,0.784003 -0.78531,0.784003 h -2.95648 q -0.78531,0 -0.78531,-0.784003 V 64.695648 q 0,-3.412719 -3.32602,-3.412719 h -1.33967 q -3.83416,0 -3.83416,4.012252 v 14.803825 q 0,0.784003 -0.83151,0.784003 h -2.91028 q -0.78531,0 -0.78531,-0.784003 V 64.695648 q 0,-3.412719 -3.32603,-3.412719 h -1.61682 q -3.78798,0 -3.78798,3.920016 v 14.896061 q 0,0.784003 -0.78531,0.784003 z m 43.42319,0 h -4.06515 q -3.41841,0 -5.31239,-1.890828 -1.84781,-1.890829 -1.84781,-5.25743 v -9.223573 q 0,-3.412721 1.84781,-5.257434 1.89398,-1.890832 5.31239,-1.890832 h 4.06515 q 3.37223,0 5.26623,1.890832 1.94017,1.844713 1.94017,5.257434 v 9.223573 q 0,3.366601 -1.94017,5.25743 -1.894,1.890828 -5.26623,1.890828 z m -3.41841,-3.920014 h 2.81789 q 3.32602,0 3.32602,-3.366601 V 64.64953 q 0,-3.366601 -3.32602,-3.366601 h -2.81789 q -1.75541,0 -2.54072,0.830121 -0.78532,0.784003 -0.78532,2.53648 v 8.946864 q 0,1.752472 0.78532,2.582598 0.78531,0.784003 2.54072,0.784003 z"
           id="text5"
           style="font-weight:600;font-size:30.6659px;font-family:Rajdhani;-inkscape-font-specification:'Rajdhani, Semi-Bold';fill:#242424;fill-opacity:1;stroke-width:1.45374;stroke-linecap:square;stroke-linejoin:round"
           aria-label="sigmo" /><path
           style="font-weight:bold;font-size:27.9141px;font-family:Rajdhani;-inkscape-font-specification:'Rajdhani, Bold';fill:#24a556;fill-opacity:1;stroke-width:0.398233"
           d="m 174.96884,55.880944 v -3.65526 q 0,-0.840291 0.8403,-0.840291 h 3.65525 q 0.8403,0 0.8403,0.798276 v 3.697275 q 0,0.84029 -0.8403,0.84029 h -3.65525 q -0.8403,0 -0.8403,-0.84029 z m 0,24.158339 V 60.376496 q 0,-0.882304 0.8403,-0.882304 h 3.61324 q 0.88231,0 0.88231,0.882304 v 19.662787 q 0,0.546183 -0.21007,0.714247 -0.16806,0.168063 -0.63023,0.168063 h -3.61324 q -0.88231,0 -0.88231,-0.88231 z M 185.5985,64.115787 h -1.68058 q -0.50417,0 -0.71425,-0.168057 -0.16806,-0.168059 -0.16806,-0.672233 v -2.899001 q 0,-0.882304 0.88231,-0.882304 h 1.68058 q 0.46216,0 0.46216,-0.462159 v -3.991379 q 0,-0.882304 0.92432,-0.882304 h 3.52921 q 0.88231,0 0.88231,0.882304 v 3.991379 q 0,0.462159 0.50418,0.462159 h 3.27713 q 0.88231,0 0.88231,0.882304 v 2.899001 q 0,0.46216 -0.21007,0.672233 -0.16806,0.168057 -0.67224,0.168057 h -3.27713 q -0.50418,0 -0.50418,0.46216 v 9.285208 q 0,1.302454 0.58821,1.890646 0.58821,0.546198 1.93267,0.546198 h 1.68057 q 0.88231,0 0.88231,0.882296 v 2.899011 q 0,0.462152 -0.21007,0.672224 -0.16806,0.168063 -0.67224,0.168063 h -2.56288 q -3.31914,0 -5.16778,-1.764606 -1.80663,-1.764621 -1.80663,-5.041752 v -9.537288 q 0,-0.46216 -0.46216,-0.46216 z"
           id="text2"
           aria-label="it" /><circle
           style="fill:#24a556;fill-opacity:1;stroke-width:0.299525"
           id="path3"
           cx="177.64886"
           cy="54.143391"
           r="3.6389544" /></g></g></g></svg>
